<svg
  width="24"
  height="24"
  viewBox="0 0 24 24"
  fill="none"
  xmlns="http://www.w3.org/2000/svg"
>
  <path
    d="M18.5932 8.19486C19.0378 8.52237 19.1328 9.14837 18.8053 9.59306C18.5509 9.93847 18.2965 10.2668 18.0733 10.5528C17.6278 11.1236 17.0145 11.8882 16.3481 12.6556C15.6861 13.4181 14.952 14.2064 14.2668 14.8119C13.9253 15.1136 13.5723 15.3911 13.2281 15.5986C12.9114 15.7895 12.4762 16 12.0001 16C11.524 16 11.0887 15.7895 10.772 15.5986C10.4278 15.3911 10.0749 15.1136 9.73344 14.8119C9.04815 14.2064 8.31411 13.4181 7.65207 12.6556C6.98572 11.8882 6.3724 11.1236 5.92688 10.5528C5.70371 10.2668 5.44926 9.93847 5.19487 9.59307C4.86736 9.14837 4.96235 8.52237 5.40704 8.19486C5.5858 8.0632 5.79386 7.99983 6.00006 8H12.0001H18.0001C18.2063 7.99983 18.4144 8.0632 18.5932 8.19486Z"
    fill="#8F8881"
  />
</svg>
